<?xml version="1.0" encoding="utf-8" ?><svg xmlns="http://www.w3.org/2000/svg" xmlns:xlink="http://www.w3.org/1999/xlink" width="127" height="126" viewBox="0 0 127 126"><defs><linearGradient id="gradient_0" gradientUnits="userSpaceOnUse" x1="63.143883" y1="-0.018119281" x2="62.620667" y2="125.77026"><stop offset="0" stop-color="#AFC1DB"/><stop offset="1" stop-color="#E3E5EB"/></linearGradient></defs><path fill="url(#gradient_0)" d="M57.0766 0L68.8893 0L68.962 0.0317834C71.2727 1.01829 74.3492 1.06273 76.8329 1.54692C78.8049 1.93134 80.7876 2.61546 82.7005 3.23639C100.175 8.95073 114.266 22.0364 121.257 39.0402C127.615 54.5621 127.531 71.9771 121.023 87.4371C114.549 102.767 102.271 114.912 86.8706 121.218C84.0908 122.35 81.1642 123.376 78.247 124.091C75.865 124.674 71.712 124.922 69.6643 126L56.3354 126C54.9127 125.149 49.1267 124.364 47.0727 123.828C34.8332 120.679 23.8509 113.86 15.6014 104.286C8.48799 96.1375 3.85876 86.5179 1.5341 75.9962C1.06053 73.8528 0.416583 71.4112 0.567143 69.2102L0 68.6721L0 58.6525L0 57.7341C0.673869 56.7752 2.14872 46.7658 2.88798 44.4437C8.86758 25.0877 23.7947 9.79083 42.9986 3.33946C45.2602 2.581 47.5683 1.96886 49.9086 1.50682C52.0223 1.07268 55.1562 1.00966 57.021 0.0300249C57.0396 0.0202236 57.0581 0.0100083 57.0766 0Z"/><path fill="#DAD6E8" d="M0 58.6525C0.482231 59.6251 0.924716 68.0996 0.567143 69.2102L0 68.6721L0 58.6525Z"/><path fill="#F7DECE" d="M31.8162 51.8821C33.3334 49.3232 35.5827 46.9023 36.7378 44.1885C37.6929 41.9444 37.8551 39.3521 38.6019 37.0256C40.6848 30.5361 46.4175 25.4249 52.9769 23.741C58.4686 22.2883 64.3132 23.0907 69.2102 25.9696C74.0934 28.8663 77.4158 33.4688 78.7987 38.9563C80.583 46.0361 79.7282 56.5135 75.9595 62.8187C74.9752 64.4654 72.4804 66.7825 71.9451 68.341C71.5676 69.44 72.3973 72.0897 71.0391 72.4864C70.6376 72.6037 70.1007 72.5598 69.6811 72.5607L64.708 72.536C64.2252 69.1013 66.0597 60.6078 63.1777 58.4413C59.6602 55.797 43.118 56.8863 38.047 56.9592C37.9612 55.7157 37.8989 54.4667 37.6855 53.2371C35.7434 52.8809 33.6466 52.6335 31.8162 51.8821Z"/><path fill="#9901F7" d="M61.2277 72.5817C61.5199 75.8257 60.6834 79.5281 61.6149 82.6521C62.2038 84.627 64.6247 85.824 64.6239 87.8861C64.6214 94.3202 57.6435 91.9625 54.338 95.2602C51.6395 97.9523 51.6935 101.987 51.6978 105.518L29.7359 105.477C29.6301 96.9955 32.4331 88.6497 38.1797 82.3319C42.463 77.6229 50.0425 72.857 56.5282 72.5497L61.2277 72.5817Z"/><path fill="#9901F7" d="M64.708 72.536L69.6811 72.5607C75.5047 72.9928 81.3083 75.8983 85.6867 79.689C93.7661 86.6841 96.2018 95.2358 96.9489 105.501L55.3439 105.482C55.3305 103.362 55.4597 101.304 55.772 99.2065C59.3008 100.712 63.1117 102.518 67.0477 102.107C70.1364 101.784 73.079 100.28 75.026 97.8447C77.0608 95.3084 77.9922 92.0614 77.6113 88.8321C77.1461 84.9578 74.4884 81.8984 70.6475 81.0202C69.1319 80.6736 66.6766 80.6257 65.4542 79.6735C64.2789 77.7028 64.7698 74.7801 64.708 72.536Z"/><path fill="#F7DECE" d="M43.5183 62.2669C47.3987 61.4969 55.0924 58.5244 58.6225 60.8882C60.0316 61.8318 60.7968 63.5518 61.0973 65.1703C61.54 67.555 61.2973 70.1641 61.2277 72.5817L56.5282 72.5497C55.7306 72.5323 54.463 72.6672 53.8565 72.1101C53.5461 71.3831 53.4766 70.6747 53.3944 69.8969C49.3265 67.95 46.3565 65.7891 43.5183 62.2669Z"/></svg>