<svg xmlns="http://www.w3.org/2000/svg" xmlns:xlink="http://www.w3.org/1999/xlink" width="126" zoomAndPan="magnify" viewBox="0 0 94.5 94.499998" height="126" preserveAspectRatio="xMidYMid meet" version="1.2"><defs><clipPath id="56de807011"><path d="M 0 0 L 94.003906 0 L 94.003906 94.003906 L 0 94.003906 Z M 0 0 "/></clipPath><clipPath id="87550c66aa"><path d="M 0 0 L 94 0 L 94 94 L 0 94 Z M 0 0 "/></clipPath><clipPath id="7f4a584527"><path d="M 93.753906 46.875 C 93.753906 48.410156 93.679688 49.945312 93.527344 51.472656 C 93.378906 53 93.152344 54.515625 92.851562 56.023438 C 92.554688 57.527344 92.179688 59.015625 91.734375 60.484375 C 91.289062 61.953125 90.773438 63.398438 90.183594 64.816406 C 89.597656 66.234375 88.941406 67.621094 88.21875 68.972656 C 87.496094 70.328125 86.707031 71.644531 85.851562 72.921875 C 85 74.195312 84.085938 75.429688 83.113281 76.613281 C 82.140625 77.800781 81.109375 78.9375 80.023438 80.023438 C 78.9375 81.109375 77.800781 82.140625 76.613281 83.113281 C 75.429688 84.085938 74.195312 85 72.921875 85.851562 C 71.644531 86.707031 70.328125 87.496094 68.972656 88.21875 C 67.621094 88.941406 66.234375 89.597656 64.816406 90.183594 C 63.398438 90.773438 61.953125 91.289062 60.484375 91.734375 C 59.015625 92.179688 57.527344 92.554688 56.023438 92.851562 C 54.515625 93.152344 53 93.378906 51.472656 93.527344 C 49.945312 93.679688 48.410156 93.753906 46.875 93.753906 C 45.339844 93.753906 43.808594 93.679688 42.28125 93.527344 C 40.753906 93.378906 39.238281 93.152344 37.730469 92.851562 C 36.226562 92.554688 34.738281 92.179688 33.269531 91.734375 C 31.800781 91.289062 30.355469 90.773438 28.9375 90.183594 C 27.519531 89.597656 26.132812 88.941406 24.777344 88.21875 C 23.425781 87.496094 22.109375 86.707031 20.832031 85.851562 C 19.558594 85 18.324219 84.085938 17.136719 83.113281 C 15.953125 82.140625 14.816406 81.109375 13.730469 80.023438 C 12.644531 78.9375 11.613281 77.800781 10.640625 76.613281 C 9.667969 75.429688 8.753906 74.195312 7.898438 72.921875 C 7.046875 71.644531 6.257812 70.328125 5.535156 68.972656 C 4.8125 67.621094 4.15625 66.234375 3.566406 64.816406 C 2.980469 63.398438 2.464844 61.953125 2.019531 60.484375 C 1.574219 59.015625 1.199219 57.527344 0.902344 56.023438 C 0.601562 54.515625 0.375 53 0.226562 51.472656 C 0.0742188 49.945312 0 48.410156 0 46.875 C 0 45.339844 0.0742188 43.808594 0.226562 42.28125 C 0.375 40.753906 0.601562 39.238281 0.902344 37.730469 C 1.199219 36.226562 1.574219 34.738281 2.019531 33.269531 C 2.464844 31.800781 2.980469 30.355469 3.566406 28.9375 C 4.15625 27.519531 4.8125 26.132812 5.535156 24.777344 C 6.257812 23.425781 7.046875 22.109375 7.898438 20.832031 C 8.753906 19.558594 9.667969 18.324219 10.640625 17.136719 C 11.613281 15.953125 12.644531 14.816406 13.730469 13.730469 C 14.816406 12.644531 15.953125 11.613281 17.136719 10.640625 C 18.324219 9.667969 19.558594 8.753906 20.832031 7.898438 C 22.109375 7.046875 23.425781 6.257812 24.777344 5.535156 C 26.132812 4.8125 27.519531 4.15625 28.9375 3.566406 C 30.355469 2.980469 31.800781 2.464844 33.269531 2.019531 C 34.738281 1.574219 36.226562 1.199219 37.730469 0.902344 C 39.238281 0.601562 40.753906 0.375 42.28125 0.226562 C 43.808594 0.0742188 45.339844 0 46.875 0 C 48.410156 0 49.945312 0.0742188 51.472656 0.226562 C 53 0.375 54.515625 0.601562 56.023438 0.902344 C 57.527344 1.199219 59.015625 1.574219 60.484375 2.019531 C 61.953125 2.464844 63.398438 2.980469 64.816406 3.566406 C 66.234375 4.15625 67.621094 4.8125 68.972656 5.535156 C 70.328125 6.257812 71.644531 7.046875 72.921875 7.898438 C 74.195312 8.753906 75.429688 9.667969 76.613281 10.640625 C 77.800781 11.613281 78.9375 12.644531 80.023438 13.730469 C 81.109375 14.816406 82.140625 15.953125 83.113281 17.136719 C 84.085938 18.324219 85 19.558594 85.851562 20.832031 C 86.707031 22.109375 87.496094 23.425781 88.21875 24.777344 C 88.941406 26.132812 89.597656 27.519531 90.183594 28.9375 C 90.773438 30.355469 91.289062 31.800781 91.734375 33.269531 C 92.179688 34.738281 92.554688 36.226562 92.851562 37.730469 C 93.152344 39.238281 93.378906 40.753906 93.527344 42.28125 C 93.679688 43.808594 93.753906 45.339844 93.753906 46.875 Z M 93.753906 46.875 "/></clipPath><linearGradient x1="62.833" gradientTransform="matrix(0.746053,0,0,0.746053,0.000001,0.000000994737)" y1="-0" x2="62.833" gradientUnits="userSpaceOnUse" y2="125.665995" id="a2638a2606"><stop style="stop-color:#afc1dc;stop-opacity:1;" offset="0"/><stop style="stop-color:#afc1dc;stop-opacity:1;" offset="0.015625"/><stop style="stop-color:#b0c2dc;stop-opacity:1;" offset="0.03125"/><stop style="stop-color:#b1c2dd;stop-opacity:1;" offset="0.046875"/><stop style="stop-color:#b2c3dd;stop-opacity:1;" offset="0.0625"/><stop style="stop-color:#b3c4dd;stop-opacity:1;" offset="0.078125"/><stop style="stop-color:#b3c4de;stop-opacity:1;" offset="0.09375"/><stop style="stop-color:#b4c5de;stop-opacity:1;" offset="0.109375"/><stop style="stop-color:#b5c5de;stop-opacity:1;" offset="0.125"/><stop style="stop-color:#b6c6de;stop-opacity:1;" offset="0.140625"/><stop style="stop-color:#b6c6df;stop-opacity:1;" offset="0.15625"/><stop style="stop-color:#b7c7df;stop-opacity:1;" offset="0.171875"/><stop style="stop-color:#b8c7df;stop-opacity:1;" offset="0.1875"/><stop style="stop-color:#b9c8df;stop-opacity:1;" offset="0.203125"/><stop style="stop-color:#bac9e0;stop-opacity:1;" offset="0.21875"/><stop style="stop-color:#bac9e0;stop-opacity:1;" offset="0.234375"/><stop style="stop-color:#bbcae0;stop-opacity:1;" offset="0.25"/><stop style="stop-color:#bccae0;stop-opacity:1;" offset="0.265625"/><stop style="stop-color:#bdcbe1;stop-opacity:1;" offset="0.28125"/><stop style="stop-color:#becbe1;stop-opacity:1;" offset="0.296875"/><stop style="stop-color:#becce1;stop-opacity:1;" offset="0.3125"/><stop style="stop-color:#bfcde1;stop-opacity:1;" offset="0.328125"/><stop style="stop-color:#c0cde2;stop-opacity:1;" offset="0.34375"/><stop style="stop-color:#c1cee2;stop-opacity:1;" offset="0.359375"/><stop style="stop-color:#c2cee2;stop-opacity:1;" offset="0.375"/><stop style="stop-color:#c2cfe3;stop-opacity:1;" offset="0.390625"/><stop style="stop-color:#c3cfe3;stop-opacity:1;" offset="0.40625"/><stop style="stop-color:#c4d0e3;stop-opacity:1;" offset="0.421875"/><stop style="stop-color:#c5d0e3;stop-opacity:1;" offset="0.4375"/><stop style="stop-color:#c6d1e4;stop-opacity:1;" offset="0.453125"/><stop style="stop-color:#c6d2e4;stop-opacity:1;" offset="0.46875"/><stop style="stop-color:#c7d2e4;stop-opacity:1;" offset="0.484375"/><stop style="stop-color:#c8d3e4;stop-opacity:1;" offset="0.5"/><stop style="stop-color:#c9d3e5;stop-opacity:1;" offset="0.515625"/><stop style="stop-color:#cad4e5;stop-opacity:1;" offset="0.53125"/><stop style="stop-color:#cad4e5;stop-opacity:1;" offset="0.546875"/><stop style="stop-color:#cbd5e5;stop-opacity:1;" offset="0.5625"/><stop style="stop-color:#ccd6e6;stop-opacity:1;" offset="0.578125"/><stop style="stop-color:#cdd6e6;stop-opacity:1;" offset="0.59375"/><stop style="stop-color:#ced7e6;stop-opacity:1;" offset="0.609375"/><stop style="stop-color:#ced7e6;stop-opacity:1;" offset="0.625"/><stop style="stop-color:#cfd8e7;stop-opacity:1;" offset="0.640625"/><stop style="stop-color:#d0d8e7;stop-opacity:1;" offset="0.65625"/><stop style="stop-color:#d1d9e7;stop-opacity:1;" offset="0.671875"/><stop style="stop-color:#d2d9e8;stop-opacity:1;" offset="0.6875"/><stop style="stop-color:#d2dae8;stop-opacity:1;" offset="0.703125"/><stop style="stop-color:#d3dbe8;stop-opacity:1;" offset="0.71875"/><stop style="stop-color:#d4dbe8;stop-opacity:1;" offset="0.734375"/><stop style="stop-color:#d5dce9;stop-opacity:1;" offset="0.75"/><stop style="stop-color:#d6dce9;stop-opacity:1;" offset="0.765625"/><stop style="stop-color:#d6dde9;stop-opacity:1;" offset="0.78125"/><stop style="stop-color:#d7dde9;stop-opacity:1;" offset="0.796875"/><stop style="stop-color:#d8deea;stop-opacity:1;" offset="0.8125"/><stop style="stop-color:#d9dfea;stop-opacity:1;" offset="0.828125"/><stop style="stop-color:#dadfea;stop-opacity:1;" offset="0.84375"/><stop style="stop-color:#dae0ea;stop-opacity:1;" offset="0.859375"/><stop style="stop-color:#dbe0eb;stop-opacity:1;" offset="0.875"/><stop style="stop-color:#dce1eb;stop-opacity:1;" offset="0.890625"/><stop style="stop-color:#dde1eb;stop-opacity:1;" offset="0.90625"/><stop style="stop-color:#dee2eb;stop-opacity:1;" offset="0.921875"/><stop style="stop-color:#dee2ec;stop-opacity:1;" offset="0.9375"/><stop style="stop-color:#dfe3ec;stop-opacity:1;" offset="0.953125"/><stop style="stop-color:#e0e4ec;stop-opacity:1;" offset="0.96875"/><stop style="stop-color:#e1e4ec;stop-opacity:1;" offset="0.984375"/><stop style="stop-color:#e2e5ed;stop-opacity:1;" offset="1"/></linearGradient></defs><g id="fbe71bfab7"><g clip-rule="nonzero" clip-path="url(#56de807011)"><path style=" stroke:none;fill-rule:nonzero;fill:#ffffff;fill-opacity:1;" d="M 0 0 L 94.003906 0 L 94.003906 94.003906 L 0 94.003906 Z M 0 0 "/><path style=" stroke:none;fill-rule:nonzero;fill:#ffffff;fill-opacity:1;" d="M 0 0 L 94.003906 0 L 94.003906 94.003906 L 0 94.003906 Z M 0 0 "/></g><g clip-rule="nonzero" clip-path="url(#87550c66aa)"><g clip-rule="nonzero" clip-path="url(#7f4a584527)"><path style=" stroke:none;fill-rule:nonzero;fill:url(#a2638a2606);" d="M 0 0 L 0 93.753906 L 93.753906 93.753906 L 93.753906 0 Z M 0 0 "/></g></g><path style=" stroke:none;fill-rule:nonzero;fill:#f7dece;fill-opacity:1;" d="M 35.25 35.984375 L 35.652344 35.949219 C 35.804688 35.933594 35.941406 35.878906 36.054688 35.796875 L 36.054688 35.800781 C 36.4375 37.128906 36.910156 38.523438 37.496094 39.984375 C 38.253906 41.894531 38.996094 43.46875 39.828125 44.984375 L 39.714844 44.753906 C 39.644531 45.796875 39.5625 46.871094 39.453125 47.910156 C 39.402344 48.550781 39.273438 49.148438 39.082031 49.710938 L 39.097656 49.660156 C 39.0625 49.675781 39.015625 55.632812 39.015625 55.632812 C 39.015625 59.519531 41.707031 62.773438 45.324219 63.636719 L 45.382812 63.648438 C 45.546875 63.230469 45.941406 62.941406 46.40625 62.941406 L 48.054688 62.941406 C 48.519531 62.945312 48.914062 63.234375 49.078125 63.640625 L 49.082031 63.648438 C 52.765625 62.78125 55.46875 59.527344 55.480469 55.640625 C 55.480469 55.640625 55.382812 49.703125 55.328125 49.664062 C 55.171875 49.160156 55.046875 48.570312 54.980469 47.960938 L 54.976562 47.917969 C 54.875 46.871094 54.808594 45.824219 54.714844 44.757812 C 55.425781 43.480469 56.167969 41.910156 56.824219 40.292969 L 56.929688 39.988281 C 57.519531 38.527344 57.976562 37.136719 58.375 35.804688 C 58.488281 35.886719 58.625 35.941406 58.773438 35.957031 L 58.777344 35.957031 L 59.183594 35.992188 C 59.671875 36.042969 60.101562 35.640625 60.140625 35.019531 L 60.578125 29.472656 C 60.578125 29.472656 60.578125 29.46875 60.578125 29.46875 C 60.578125 29 60.226562 28.617188 59.777344 28.558594 L 59.722656 28.558594 C 59.835938 27.75 59.898438 26.820312 59.898438 25.875 C 59.898438 23.816406 59.59375 21.820312 59.027344 19.945312 L 59.066406 20.09375 C 57.40625 16.457031 54.125 13.820312 50.167969 13.082031 L 50.089844 13.070312 C 49.242188 12.894531 48.25 12.777344 47.242188 12.75 L 47.179688 12.75 C 46.148438 12.769531 45.160156 12.882812 44.199219 13.085938 L 44.304688 13.070312 C 40.277344 13.828125 36.996094 16.46875 35.359375 20.015625 L 35.328125 20.09375 C 34.796875 21.816406 34.488281 23.796875 34.488281 25.847656 C 34.488281 26.804688 34.554688 27.746094 34.683594 28.664062 L 34.671875 28.558594 C 34.214844 28.609375 33.863281 28.992188 33.863281 29.457031 L 33.863281 29.476562 L 34.296875 35.023438 C 34.339844 35.660156 34.777344 36.042969 35.246094 35.992188 Z M 35.25 35.984375 "/><path style=" stroke:none;fill-rule:nonzero;fill:#9902f7;fill-opacity:1;" d="M 77.996094 72.683594 C 77.796875 63.953125 76.925781 61.976562 76.453125 60.640625 C 76.265625 60.101562 76.113281 56.472656 70.117188 54.117188 C 66.441406 52.671875 61.699219 52.640625 57.683594 50.945312 L 57.683594 55.664062 C 57.675781 60.742188 54.042969 64.964844 49.230469 65.886719 L 49.164062 65.898438 C 49.078125 66.421875 48.628906 66.8125 48.089844 66.816406 L 48.039062 66.816406 L 48.039062 70.378906 C 48.039062 73.859375 50.859375 76.679688 54.339844 76.679688 C 57.820312 76.679688 60.640625 73.859375 60.640625 70.378906 L 60.640625 67.890625 C 58.894531 67.632812 57.570312 66.144531 57.570312 64.347656 C 57.570312 62.367188 59.175781 60.761719 61.152344 60.761719 C 63.132812 60.761719 64.738281 62.367188 64.738281 64.347656 C 64.738281 65.914062 63.730469 67.246094 62.328125 67.734375 L 62.300781 67.742188 L 62.300781 70.515625 C 62.300781 74.914062 58.734375 78.480469 54.335938 78.480469 C 49.9375 78.480469 46.371094 74.914062 46.371094 70.515625 C 46.371094 70.464844 46.371094 70.417969 46.371094 70.371094 L 46.371094 70.375 L 46.371094 66.785156 C 45.859375 66.75 45.445312 66.363281 45.367188 65.871094 L 45.367188 65.863281 C 40.515625 64.921875 36.894531 60.710938 36.882812 55.652344 L 36.882812 50.894531 C 32.851562 52.628906 28.082031 52.664062 24.386719 54.113281 C 18.371094 56.464844 18.234375 60.085938 18.050781 60.628906 C 17.589844 61.972656 16.707031 63.941406 16.503906 72.675781 C 16.472656 73.824219 16.503906 75.585938 19.96875 77.125 C 27.507812 80.082031 37.222656 81 46.800781 81.660156 L 47.71875 81.660156 C 57.316406 81.007812 67.015625 80.089844 74.550781 77.125 C 77.996094 75.59375 78.027344 73.84375 77.996094 72.683594 Z M 35.84375 69.121094 L 32.265625 69.121094 L 32.265625 72.714844 L 29.707031 72.714844 L 29.707031 69.132812 L 26.132812 69.132812 L 26.132812 66.578125 L 29.707031 66.578125 L 29.707031 63 L 32.265625 63 L 32.265625 66.578125 L 35.84375 66.578125 Z M 35.84375 69.121094 "/><path style=" stroke:none;fill-rule:nonzero;fill:#000000;fill-opacity:1;" d="M 63.089844 64.316406 C 63.089844 63.246094 62.226562 62.378906 61.160156 62.378906 C 60.089844 62.378906 59.226562 63.246094 59.226562 64.3125 C 59.226562 65.378906 60.089844 66.246094 61.160156 66.246094 C 62.222656 66.246094 63.089844 65.378906 63.089844 64.316406 Z M 63.089844 64.316406 "/></g></svg>