<svg xmlns="http://www.w3.org/2000/svg" xmlns:xlink="http://www.w3.org/1999/xlink" width="217" zoomAndPan="magnify" viewBox="0 0 162.75 34.499999" height="46" preserveAspectRatio="xMidYMid meet" version="1.2"><defs><clipPath id="64f8e26c84"><path d="M 1.039062 0 L 161.464844 0 L 161.464844 34.007812 L 1.039062 34.007812 Z M 1.039062 0 "/></clipPath><clipPath id="16ca5b8f25"><path d="M 1.039062 0 L 36 0 L 36 34 L 1.039062 34 Z M 1.039062 0 "/></clipPath></defs><g id="1d1ffc9d5b"><g clip-rule="nonzero" clip-path="url(#64f8e26c84)"><path style=" stroke:none;fill-rule:nonzero;fill:#ffffff;fill-opacity:1;" d="M 1.039062 0 L 161.464844 0 L 161.464844 34.007812 L 1.039062 34.007812 Z M 1.039062 0 "/><path style=" stroke:none;fill-rule:nonzero;fill:#ffffff;fill-opacity:1;" d="M 1.039062 0 L 161.464844 0 L 161.464844 34.007812 L 1.039062 34.007812 Z M 1.039062 0 "/></g><g clip-rule="nonzero" clip-path="url(#16ca5b8f25)"><path style=" stroke:none;fill-rule:nonzero;fill:#9902f7;fill-opacity:1;" d="M 18.363281 0 C 27.707031 0 35.28125 7.574219 35.28125 16.917969 L 35.28125 28.757812 C 35.28125 30.105469 34.746094 31.394531 33.796875 32.347656 C 32.84375 33.300781 31.550781 33.832031 30.207031 33.832031 L 19.210938 33.832031 L 19.210938 26.414062 C 19.210938 24.71875 19.3125 22.964844 20.203125 21.523438 C 20.835938 20.492188 21.6875 19.605469 22.695312 18.929688 C 23.703125 18.257812 24.84375 17.804688 26.042969 17.609375 L 26.367188 17.558594 C 26.5 17.511719 26.613281 17.425781 26.695312 17.308594 C 26.777344 17.195312 26.824219 17.058594 26.824219 16.917969 C 26.824219 16.777344 26.777344 16.636719 26.695312 16.523438 C 26.613281 16.410156 26.5 16.324219 26.367188 16.277344 L 26.042969 16.222656 C 24.292969 15.9375 22.675781 15.109375 21.425781 13.855469 C 20.171875 12.605469 19.34375 10.988281 19.058594 9.238281 L 19.003906 8.917969 C 18.960938 8.78125 18.875 8.667969 18.757812 8.585938 C 18.644531 8.503906 18.503906 8.457031 18.363281 8.457031 C 18.222656 8.457031 18.085938 8.503906 17.972656 8.585938 C 17.855469 8.667969 17.769531 8.78125 17.722656 8.917969 L 17.671875 9.238281 C 17.476562 10.4375 17.027344 11.578125 16.351562 12.585938 C 15.675781 13.59375 14.792969 14.445312 13.757812 15.078125 C 12.316406 15.96875 10.5625 16.070312 8.871094 16.070312 L 1.46875 16.070312 C 1.910156 7.121094 9.304688 0 18.363281 0 Z M 18.363281 0 "/><path style=" stroke:none;fill-rule:nonzero;fill:#9902f7;fill-opacity:1;" d="M 1.449219 17.761719 L 8.871094 17.761719 C 10.5625 17.761719 12.316406 17.867188 13.757812 18.753906 C 14.886719 19.449219 15.832031 20.398438 16.527344 21.523438 C 17.414062 22.964844 17.519531 24.71875 17.519531 26.414062 L 17.519531 33.832031 L 6.523438 33.832031 C 5.175781 33.832031 3.886719 33.300781 2.933594 32.347656 C 1.984375 31.394531 1.449219 30.105469 1.449219 28.757812 Z M 35.28125 1.691406 C 35.28125 2.140625 35.105469 2.570312 34.785156 2.886719 C 34.46875 3.207031 34.039062 3.382812 33.589844 3.382812 C 33.140625 3.382812 32.710938 3.207031 32.394531 2.886719 C 32.078125 2.570312 31.898438 2.140625 31.898438 1.691406 C 31.898438 1.242188 32.078125 0.8125 32.394531 0.496094 C 32.710938 0.179688 33.140625 0 33.589844 0 C 34.039062 0 34.46875 0.179688 34.785156 0.496094 C 35.105469 0.8125 35.28125 1.242188 35.28125 1.691406 Z M 35.28125 1.691406 "/></g><path style=" stroke:none;fill-rule:nonzero;fill:#71037b;fill-opacity:1;" d="M 47.675781 20.6875 L 47.675781 17.910156 L 51.75 17.910156 C 52.285156 17.910156 52.765625 17.804688 53.199219 17.585938 C 53.632812 17.371094 53.976562 17.0625 54.226562 16.660156 C 54.476562 16.246094 54.601562 15.742188 54.601562 15.160156 C 54.601562 14.59375 54.476562 14.101562 54.226562 13.683594 C 53.976562 13.269531 53.632812 12.953125 53.199219 12.734375 C 52.765625 12.519531 52.285156 12.410156 51.75 12.410156 L 47.675781 12.410156 L 47.675781 9.632812 L 52.101562 9.632812 C 53.21875 9.632812 54.21875 9.859375 55.101562 10.308594 C 56 10.757812 56.710938 11.402344 57.226562 12.234375 C 57.742188 13.050781 58.003906 14.027344 58.003906 15.160156 C 58.003906 16.292969 57.742188 17.277344 57.226562 18.113281 C 56.710938 18.929688 56 19.5625 55.101562 20.011719 C 54.21875 20.460938 53.21875 20.6875 52.101562 20.6875 Z M 45.171875 27.214844 L 45.171875 9.632812 L 48.574219 9.632812 L 48.574219 27.214844 Z M 60.234375 27.214844 L 60.234375 15.136719 L 63.507812 15.136719 L 63.507812 27.214844 Z M 63.507812 20.539062 L 62.234375 19.6875 C 62.382812 18.203125 62.816406 17.035156 63.535156 16.1875 C 64.25 15.320312 65.285156 14.886719 66.636719 14.886719 C 67.21875 14.886719 67.742188 14.984375 68.210938 15.183594 C 68.675781 15.367188 69.101562 15.675781 69.484375 16.109375 L 67.433594 18.460938 C 67.25 18.261719 67.027344 18.113281 66.761719 18.011719 C 66.511719 17.910156 66.21875 17.863281 65.882812 17.863281 C 65.183594 17.863281 64.609375 18.085938 64.160156 18.535156 C 63.726562 18.96875 63.507812 19.636719 63.507812 20.539062 Z M 76.070312 27.464844 C 74.804688 27.464844 73.679688 27.199219 72.695312 26.664062 C 71.710938 26.113281 70.929688 25.363281 70.34375 24.414062 C 69.777344 23.464844 69.496094 22.378906 69.496094 21.164062 C 69.496094 19.960938 69.769531 18.894531 70.320312 17.960938 C 70.886719 17.011719 71.652344 16.261719 72.621094 15.710938 C 73.585938 15.144531 74.664062 14.859375 75.847656 14.859375 C 77.015625 14.859375 78.039062 15.128906 78.921875 15.660156 C 79.824219 16.175781 80.523438 16.894531 81.023438 17.8125 C 81.539062 18.710938 81.796875 19.738281 81.796875 20.886719 C 81.796875 21.105469 81.78125 21.328125 81.75 21.5625 C 81.730469 21.777344 81.691406 22.03125 81.625 22.3125 L 71.46875 22.335938 L 71.46875 19.886719 L 80.097656 19.863281 L 78.773438 20.886719 C 78.738281 20.171875 78.605469 19.570312 78.371094 19.085938 C 78.15625 18.601562 77.832031 18.238281 77.398438 17.988281 C 76.980469 17.71875 76.464844 17.585938 75.847656 17.585938 C 75.195312 17.585938 74.628906 17.734375 74.144531 18.035156 C 73.664062 18.320312 73.289062 18.726562 73.019531 19.261719 C 72.769531 19.777344 72.644531 20.394531 72.644531 21.113281 C 72.644531 21.847656 72.777344 22.488281 73.046875 23.039062 C 73.328125 23.570312 73.730469 23.988281 74.246094 24.289062 C 74.761719 24.570312 75.363281 24.714844 76.046875 24.714844 C 76.664062 24.714844 77.222656 24.613281 77.722656 24.414062 C 78.222656 24.195312 78.65625 23.878906 79.023438 23.464844 L 80.949219 25.386719 C 80.363281 26.070312 79.648438 26.589844 78.796875 26.9375 C 77.964844 27.289062 77.054688 27.464844 76.070312 27.464844 Z M 87.976562 27.488281 C 87.292969 27.488281 86.617188 27.398438 85.949219 27.214844 C 85.300781 27.03125 84.699219 26.78125 84.148438 26.464844 C 83.597656 26.128906 83.125 25.730469 82.722656 25.261719 L 84.675781 23.289062 C 85.089844 23.753906 85.574219 24.105469 86.125 24.339844 C 86.675781 24.570312 87.285156 24.6875 87.949219 24.6875 C 88.484375 24.6875 88.882812 24.613281 89.152344 24.464844 C 89.433594 24.3125 89.574219 24.089844 89.574219 23.789062 C 89.574219 23.453125 89.425781 23.195312 89.125 23.011719 C 88.84375 22.828125 88.46875 22.679688 88 22.5625 C 87.535156 22.429688 87.042969 22.289062 86.523438 22.136719 C 86.023438 21.972656 85.542969 21.761719 85.074219 21.511719 C 84.609375 21.246094 84.222656 20.886719 83.925781 20.4375 C 83.640625 19.96875 83.5 19.371094 83.5 18.636719 C 83.5 17.871094 83.683594 17.203125 84.050781 16.636719 C 84.433594 16.070312 84.972656 15.628906 85.675781 15.3125 C 86.375 14.992188 87.199219 14.835938 88.148438 14.835938 C 89.152344 14.835938 90.050781 15.011719 90.851562 15.359375 C 91.667969 15.710938 92.34375 16.234375 92.875 16.9375 L 90.902344 18.910156 C 90.535156 18.460938 90.117188 18.136719 89.652344 17.9375 C 89.199219 17.734375 88.710938 17.636719 88.175781 17.636719 C 87.691406 17.636719 87.316406 17.710938 87.050781 17.863281 C 86.800781 18.011719 86.675781 18.21875 86.675781 18.488281 C 86.675781 18.785156 86.816406 19.019531 87.101562 19.1875 C 87.398438 19.351562 87.785156 19.503906 88.25 19.636719 C 88.71875 19.753906 89.199219 19.894531 89.699219 20.0625 C 90.21875 20.210938 90.699219 20.429688 91.152344 20.710938 C 91.617188 20.996094 91.992188 21.371094 92.277344 21.835938 C 92.578125 22.304688 92.726562 22.90625 92.726562 23.636719 C 92.726562 24.820312 92.300781 25.765625 91.453125 26.464844 C 90.601562 27.148438 89.441406 27.488281 87.976562 27.488281 Z M 100.636719 27.464844 C 99.402344 27.464844 98.296875 27.1875 97.3125 26.640625 C 96.328125 26.089844 95.550781 25.339844 94.984375 24.386719 C 94.417969 23.4375 94.136719 22.371094 94.136719 21.1875 C 94.136719 19.988281 94.417969 18.910156 94.984375 17.960938 C 95.550781 17.011719 96.328125 16.261719 97.3125 15.710938 C 98.3125 15.144531 99.421875 14.859375 100.636719 14.859375 C 101.589844 14.859375 102.464844 15.035156 103.261719 15.386719 C 104.0625 15.734375 104.753906 16.234375 105.339844 16.886719 L 103.238281 19.011719 C 102.921875 18.660156 102.539062 18.394531 102.089844 18.210938 C 101.65625 18.027344 101.171875 17.9375 100.636719 17.9375 C 100.039062 17.9375 99.496094 18.078125 99.011719 18.363281 C 98.546875 18.628906 98.171875 19.003906 97.886719 19.488281 C 97.621094 19.953125 97.488281 20.511719 97.488281 21.164062 C 97.488281 21.796875 97.621094 22.363281 97.886719 22.863281 C 98.171875 23.347656 98.546875 23.730469 99.011719 24.011719 C 99.496094 24.28125 100.039062 24.414062 100.636719 24.414062 C 101.1875 24.414062 101.679688 24.320312 102.113281 24.136719 C 102.5625 23.9375 102.945312 23.65625 103.261719 23.289062 L 105.390625 25.414062 C 104.773438 26.082031 104.0625 26.589844 103.261719 26.9375 C 102.464844 27.289062 101.589844 27.464844 100.636719 27.464844 Z M 107.246094 27.214844 L 107.246094 15.136719 L 110.519531 15.136719 L 110.519531 27.214844 Z M 110.519531 20.539062 L 109.246094 19.6875 C 109.394531 18.203125 109.828125 17.035156 110.546875 16.1875 C 111.261719 15.320312 112.296875 14.886719 113.644531 14.886719 C 114.230469 14.886719 114.753906 14.984375 115.222656 15.183594 C 115.6875 15.367188 116.113281 15.675781 116.496094 16.109375 L 114.445312 18.460938 C 114.261719 18.261719 114.039062 18.113281 113.769531 18.011719 C 113.519531 17.910156 113.230469 17.863281 112.894531 17.863281 C 112.195312 17.863281 111.621094 18.085938 111.171875 18.535156 C 110.738281 18.96875 110.519531 19.636719 110.519531 20.539062 Z M 117.648438 27.214844 L 117.648438 15.136719 L 120.949219 15.136719 L 120.949219 27.214844 Z M 119.296875 13.183594 C 118.765625 13.183594 118.324219 13.011719 117.972656 12.660156 C 117.625 12.292969 117.449219 11.84375 117.449219 11.308594 C 117.449219 10.792969 117.625 10.351562 117.972656 9.984375 C 118.324219 9.617188 118.765625 9.433594 119.296875 9.433594 C 119.847656 9.433594 120.289062 9.617188 120.625 9.984375 C 120.972656 10.351562 121.148438 10.792969 121.148438 11.308594 C 121.148438 11.84375 120.972656 12.292969 120.625 12.660156 C 120.289062 13.011719 119.847656 13.183594 119.296875 13.183594 Z M 130.554688 27.464844 C 129.6875 27.464844 128.902344 27.289062 128.203125 26.9375 C 127.5 26.574219 126.945312 26.082031 126.527344 25.464844 C 126.109375 24.847656 125.886719 24.136719 125.851562 23.339844 L 125.851562 19.0625 C 125.886719 18.261719 126.109375 17.554688 126.527344 16.9375 C 126.960938 16.300781 127.519531 15.800781 128.203125 15.4375 C 128.902344 15.070312 129.6875 14.886719 130.554688 14.886719 C 131.671875 14.886719 132.671875 15.160156 133.554688 15.710938 C 134.4375 16.261719 135.128906 17.011719 135.628906 17.960938 C 136.148438 18.910156 136.40625 19.988281 136.40625 21.1875 C 136.40625 22.371094 136.148438 23.4375 135.628906 24.386719 C 135.128906 25.339844 134.4375 26.089844 133.554688 26.640625 C 132.671875 27.1875 131.671875 27.464844 130.554688 27.464844 Z M 129.976562 24.4375 C 130.578125 24.4375 131.113281 24.304688 131.578125 24.039062 C 132.046875 23.753906 132.402344 23.371094 132.652344 22.886719 C 132.921875 22.386719 133.054688 21.8125 133.054688 21.164062 C 133.054688 20.527344 132.921875 19.96875 132.652344 19.488281 C 132.402344 18.988281 132.046875 18.601562 131.578125 18.335938 C 131.113281 18.054688 130.578125 17.910156 129.976562 17.910156 C 129.394531 17.910156 128.871094 18.054688 128.402344 18.335938 C 127.9375 18.601562 127.570312 18.988281 127.300781 19.488281 C 127.050781 19.96875 126.925781 20.527344 126.925781 21.164062 C 126.925781 21.8125 127.050781 22.386719 127.300781 22.886719 C 127.570312 23.371094 127.925781 23.753906 128.378906 24.039062 C 128.84375 24.304688 129.378906 24.4375 129.976562 24.4375 Z M 123.851562 32.265625 L 123.851562 15.136719 L 127.125 15.136719 L 127.125 18.3125 L 126.578125 21.238281 L 127.101562 24.164062 L 127.101562 32.265625 Z M 140.035156 27.214844 L 140.035156 10.109375 L 143.3125 10.109375 L 143.3125 27.214844 Z M 137.210938 18.011719 L 137.210938 15.136719 L 146.136719 15.136719 L 146.136719 18.011719 Z M 153.363281 27.464844 C 152.144531 27.464844 151.046875 27.1875 150.0625 26.640625 C 149.09375 26.070312 148.320312 25.3125 147.738281 24.363281 C 147.167969 23.394531 146.886719 22.320312 146.886719 21.136719 C 146.886719 19.953125 147.167969 18.894531 147.738281 17.960938 C 148.304688 17.011719 149.078125 16.261719 150.0625 15.710938 C 151.046875 15.144531 152.136719 14.859375 153.339844 14.859375 C 154.570312 14.859375 155.671875 15.144531 156.640625 15.710938 C 157.621094 16.261719 158.398438 17.011719 158.964844 17.960938 C 159.53125 18.894531 159.816406 19.953125 159.816406 21.136719 C 159.816406 22.320312 159.53125 23.394531 158.964844 24.363281 C 158.398438 25.3125 157.621094 26.070312 156.640625 26.640625 C 155.671875 27.1875 154.578125 27.464844 153.363281 27.464844 Z M 153.339844 24.414062 C 153.953125 24.414062 154.496094 24.28125 154.964844 24.011719 C 155.445312 23.730469 155.8125 23.347656 156.0625 22.863281 C 156.332031 22.363281 156.464844 21.796875 156.464844 21.164062 C 156.464844 20.527344 156.332031 19.96875 156.0625 19.488281 C 155.796875 19.003906 155.429688 18.628906 154.964844 18.363281 C 154.496094 18.078125 153.953125 17.9375 153.339844 17.9375 C 152.738281 17.9375 152.203125 18.078125 151.738281 18.363281 C 151.269531 18.628906 150.902344 19.003906 150.636719 19.488281 C 150.371094 19.96875 150.238281 20.527344 150.238281 21.164062 C 150.238281 21.796875 150.371094 22.363281 150.636719 22.863281 C 150.902344 23.347656 151.269531 23.730469 151.738281 24.011719 C 152.203125 24.28125 152.738281 24.414062 153.339844 24.414062 Z M 153.339844 24.414062 "/></g></svg>